<svg aria-hidden="true" style="position:absolute;width:0;height:0;overflow:hidden" xmlns="http://www.w3.org/2000/svg">
  <defs>
    
    <symbol id="icon-logo" viewBox="0 0 32 32">
      <path d="M0 0h32v32H0V0z"/>
    </symbol>
    
    <symbol id="icon-youtube" viewBox="0 0 32 32">
      <path d="M24.239 5.999c-1.36-.08-4.16-.16-8.4-.16h-.56c-4.08 0-6.8.08-8.16.24-1.84.16-3.12.64-3.84 1.28-.64.56-1.12 1.6-1.28 2.96-.08.88-.16 2.72-.16 5.52v.4c0 2.64.08 4.48.24 5.36.24 1.28.64 2.24 1.44 2.8.8.64 2.16 1.04 4.08 1.2 1.36.08 4.16.16 8.4.16h.56c4.08 0 6.8-.08 8.16-.24 1.84-.16 3.12-.64 3.84-1.28.64-.56 1.12-1.6 1.28-2.96.08-.88.16-2.72.16-5.52v-.4c0-2.64-.08-4.48-.24-5.36-.24-1.28-.64-2.24-1.44-2.8-.8-.64-2.16-1.04-4.08-1.2zm-3.12 9.84-8.8 5.28v-10.56l8.8 5.28z"/>
    </symbol>
    
    <symbol id="icon-instagram" viewBox="0 0 32 32">
      <path d="M24.544 5.536a1.921 1.921 0 0 0-.375 3.803c.372.074.759.036 1.11-.109.351-.145.651-.391.861-.707s.324-.687.324-1.067a1.921 1.921 0 0 0-1.92-1.92zm7.36 3.872a12.145 12.145 0 0 0-.736-3.888 7.907 7.907 0 0 0-1.856-2.832A7.525 7.525 0 0 0 26.48.848a11.698 11.698 0 0 0-3.888-.752C20.896 0 20.352 0 16 0s-4.896 0-6.592.096A11.698 11.698 0 0 0 5.52.848a7.65 7.65 0 0 0-2.832 1.84A7.525 7.525 0 0 0 .848 5.52a11.698 11.698 0 0 0-.752 3.888C0 11.104 0 11.648 0 16s0 4.896.096 6.592c.028 1.329.282 2.644.752 3.888a7.525 7.525 0 0 0 1.84 2.832 7.65 7.65 0 0 0 2.832 1.84c1.244.47 2.559.725 3.888.752C11.104 32 11.648 32 16 32s4.896 0 6.592-.096a11.673 11.673 0 0 0 3.888-.752 7.525 7.525 0 0 0 2.832-1.84 7.761 7.761 0 0 0 1.856-2.832c.456-1.247.705-2.56.736-3.888 0-1.696.096-2.24.096-6.592s0-4.896-.096-6.592zM29.024 22.4a8.993 8.993 0 0 1-.544 2.976 4.911 4.911 0 0 1-1.2 1.84 5.107 5.107 0 0 1-1.84 1.2 8.993 8.993 0 0 1-2.976.544c-1.6.08-2.192.096-6.4.096s-4.8 0-6.4-.096a9.168 9.168 0 0 1-3.104-.48 5.219 5.219 0 0 1-1.76-1.2 4.806 4.806 0 0 1-1.184-1.84 8.864 8.864 0 0 1-.64-3.04c0-1.6-.096-2.192-.096-6.4s0-4.8.096-6.4a8.87 8.87 0 0 1 .56-3.04A4.81 4.81 0 0 1 4.8 4.8a5.027 5.027 0 0 1 1.76-1.28 9.16 9.16 0 0 1 3.04-.544c1.6 0 2.192-.096 6.4-.096s4.8 0 6.4.096a8.993 8.993 0 0 1 2.976.544A4.9 4.9 0 0 1 27.28 4.8a4.893 4.893 0 0 1 1.2 1.76c.356.974.54 2.003.544 3.04.08 1.6.096 2.192.096 6.4s-.016 4.8-.096 6.4zM16 7.792a8.206 8.206 0 0 0-8.033 9.819 8.206 8.206 0 0 0 11.193 5.97A8.21 8.21 0 0 0 24.223 16a8.188 8.188 0 0 0-5.076-7.592 8.194 8.194 0 0 0-3.148-.616zm0 13.536a5.322 5.322 0 0 1-4.922-3.289 5.326 5.326 0 0 1 3.883-7.264 5.333 5.333 0 0 1 5.469 2.265 5.33 5.33 0 0 1-4.431 8.289z"/>
    </symbol>
    
    <symbol id="icon-facebook" viewBox="0 0 32 32">
      <path d="M21.445 5.312h3.088V.224A44.2 44.2 0 0 0 20.032 0c-4.468 0-7.523 2.656-7.523 7.52v4.192H7.466v5.696h5.043V32h6.045V17.408h5.026l.756-5.696h-5.782V8.08c0-1.68.46-2.768 2.891-2.768z"/>
    </symbol>
    
    <symbol id="icon-elipse" viewBox="0 0 32 32">
      <path d="M23.579 14.316c0 6.046-4.901 10.947-10.947 10.947S1.685 20.362 1.685 14.316c0-6.046 4.901-10.947 10.947-10.947S23.579 8.27 23.579 14.316z"/>
    </symbol>
    
    <symbol id="icon-arrow" viewBox="0 0 32 32">
      <path d="M22.222 8.889 32 16l-9.778 7.111v-5.879H0v-2.463h22.222V8.89z"/>
    </symbol>
    
    <symbol id="icon-gamburger-button" viewBox="0 0 32 32">
      <path d="M2.667 7.993c0-.733.595-1.327 1.327-1.327h10.68a1.326 1.326 0 0 1 0 2.654H3.994a1.326 1.326 0 0 1-1.327-1.327zm0 8.007c0-.733.595-1.327 1.327-1.327h24.013a1.326 1.326 0 0 1 0 2.654H3.994A1.326 1.326 0 0 1 2.667 16zm1.326 6.68a1.326 1.326 0 0 0 0 2.654h16.013a1.326 1.326 0 0 0 0-2.654H3.993z"/>
    </symbol>
    
    <symbol id="icon-close-button" viewBox="0 0 32 32">
      <path stroke-linejoin="round" stroke-linecap="round" stroke-width="1.733" d="M24 8 8 24M8 8l16 16"/>
    </symbol>
    
  </defs>
</svg>
